<?xml version="1.0" encoding="UTF-8" standalone="no"?>
<svg width="749px" height="308px" viewBox="0 0 749 308" version="1.1" xmlns="http://www.w3.org/2000/svg" xmlns:xlink="http://www.w3.org/1999/xlink" xmlns:sketch="http://www.bohemiancoding.com/sketch/ns">
    <!-- Generator: Sketch 3.3 (11970) - http://www.bohemiancoding.com/sketch -->
    <title>ACE_Logo</title>
    <desc>Created with Sketch.</desc>
    <defs></defs>
    <g id="Page-1" stroke="none" stroke-width="1" fill="none" fill-rule="evenodd" sketch:type="MSPage">
        <g id="ACE_Logo" sketch:type="MSLayerGroup">
            <path d="M735.266,56.777 C728.524,55.215 715.992,51.315 707.816,42.737 C699.676,34.198 695.504,21.714 693.744,15.033 L693.675,14.775 L54.335,14.775 L54.266,15.033 C52.501,21.718 48.324,34.205 40.193,42.737 C32.018,51.315 19.485,55.215 12.743,56.777 L12.492,56.835 L12.492,251.378 L12.743,251.435 C19.481,252.993 32.005,256.882 40.193,265.473 C48.324,274.006 52.501,286.494 54.266,293.179 L54.335,293.435 L693.675,293.435 L693.744,293.179 C695.507,286.498 699.679,274.014 707.816,265.473 C716.005,256.882 728.53,252.993 735.266,251.435 L735.518,251.378 L735.518,56.835 L735.266,56.777" id="Fill-1" fill="#FEFCF5" sketch:type="MSShapeGroup"></path>
            <path d="M735.206,251.08 C728.088,252.723 715.755,256.654 707.607,265.203 C699.538,273.671 695.342,285.882 693.445,293.073 L54.565,293.073 C52.665,285.882 48.47,273.671 40.403,265.203 C32.253,256.654 19.92,252.723 12.804,251.08 L12.804,57.135 C19.92,55.486 32.253,51.557 40.403,43.007 C48.47,34.541 52.665,22.331 54.565,15.14 L693.445,15.14 C695.342,22.331 699.538,34.541 707.607,43.007 C715.755,51.557 728.088,55.486 735.206,57.135 L735.206,251.08 L735.206,251.08 Z M742.123,43.706 C737.313,43.086 723.227,39.804 715.962,32.181 C707.284,23.078 704.408,6.624 704.38,6.459 L703.383,0.591 C703.38,0.576 698.25,0.576 698.25,0.576 L44.604,0.576 L43.626,6.475 C43.6,6.624 40.723,23.078 32.046,32.181 C24.783,39.804 10.694,43.086 5.878,43.706 L0.321,44.424 C0.312,44.424 0.312,50.946 0.312,50.946 L0.312,263.802 L5.888,264.506 C10.694,265.125 24.783,268.411 32.046,276.033 C40.723,285.135 43.6,301.587 43.627,301.755 L44.624,307.623 C44.628,307.637 49.757,307.637 49.757,307.637 L703.405,307.637 L704.38,301.738 C704.408,301.587 707.284,285.135 715.962,276.033 C723.227,268.411 737.313,265.125 742.128,264.506 L747.688,263.788 C747.697,263.788 747.697,257.267 747.697,257.267 L747.697,44.409 L742.123,43.706 L742.123,43.706 Z" id="Fill-2" fill="#1A1918" sketch:type="MSShapeGroup"></path>
            <path d="M747.384,44.409 L747.384,257.267 C747.384,259.785 747.383,263.587 747.376,263.765 L747.688,263.425 L747.652,263.425 L742.092,264.143 C737.254,264.765 723.088,268.065 715.754,275.762 C707.183,284.752 704.2,300.97 704.077,301.656 C704.074,301.669 703.098,307.569 703.098,307.569 L703.405,307.273 L49.757,307.273 C47.792,307.273 44.809,307.27 44.649,307.26 L44.928,307.533 C44.931,307.55 43.934,301.684 43.934,301.684 C43.906,301.521 40.977,284.913 32.255,275.762 C24.923,268.069 10.76,264.765 5.921,264.143 L0.347,263.439 L0.625,263.802 L0.625,50.946 C0.625,48.422 0.627,44.611 0.631,44.444 L0.321,44.789 L0.337,44.789 L0.355,44.787 L5.913,44.069 C10.754,43.444 24.927,40.141 32.255,32.45 C40.935,23.345 43.813,7.228 43.932,6.548 C43.932,6.544 44.911,0.645 44.911,0.645 L44.604,0.94 L698.25,0.94 C700.213,0.94 703.191,0.943 703.357,0.955 L703.079,0.669 C703.077,0.663 704.074,6.529 704.074,6.529 C704.101,6.693 706.924,23.192 715.754,32.45 C723.08,40.14 737.248,43.443 742.087,44.069 C742.088,44.069 747.664,44.772 747.664,44.772 L747.384,44.409 L747.384,44.409 Z M742.157,43.346 C737.372,42.727 723.375,39.47 716.171,31.91 C707.517,22.833 704.713,6.553 704.687,6.389 L703.69,0.521 C703.633,0.224 703.633,0.224 702.581,0.219 L700.817,0.212 L698.25,0.211 L44.347,0.211 L44.298,0.506 L43.319,6.405 C43.293,6.567 40.364,22.964 31.837,31.91 C24.633,39.471 10.631,42.728 5.844,43.346 L0.285,44.064 L0.321,44.06 C0.008,44.06 0.006,44.373 0.006,44.703 L0.003,45.443 L0,50.946 L0,264.128 L0.279,264.165 L5.854,264.869 C10.635,265.484 24.628,268.737 31.837,276.303 C40.372,285.257 43.293,301.66 43.321,301.824 C43.321,301.826 44.318,307.694 44.318,307.694 C44.382,307.992 44.382,307.992 45.427,307.996 L47.192,308 L703.663,308 L703.711,307.705 L704.687,301.806 C704.809,301.127 707.752,285.135 716.171,276.303 C723.383,268.733 737.378,265.484 742.162,264.869 C742.164,264.869 747.723,264.151 747.723,264.151 L747.688,264.151 C748,264.151 748.001,263.841 748.003,263.509 L748.008,260.527 L748.009,257.267 L748.009,44.081 L747.73,44.046 C747.73,44.046 742.156,43.343 742.157,43.346 L742.157,43.346 Z" id="Fill-3" fill="#1A1918" sketch:type="MSShapeGroup"></path>
            <path d="M735.266,56.777 C728.524,55.215 715.992,51.315 707.816,42.737 C699.676,34.198 695.504,21.714 693.744,15.033 L693.675,14.775 L54.335,14.775 L54.266,15.033 C52.501,21.718 48.324,34.205 40.193,42.737 C32.018,51.315 19.485,55.215 12.743,56.777 L12.492,56.835 L12.492,251.378 L12.743,251.435 C19.481,252.993 32.005,256.882 40.193,265.473 C48.324,274.006 52.501,286.494 54.266,293.179 L54.335,293.435 L693.675,293.435 L693.744,293.179 C695.507,286.498 699.679,274.014 707.816,265.473 C716.005,256.882 728.53,252.993 735.266,251.435 L735.518,251.378 L735.518,56.835 L735.266,56.777 L735.266,56.777 Z M735.145,250.723 C728.345,252.292 715.7,256.225 707.398,264.933 C699.149,273.589 694.929,286.213 693.146,292.966 L693.445,292.71 L54.565,292.71 L54.863,292.966 C53.078,286.21 48.853,273.584 40.611,264.933 C32.312,256.225 19.664,252.292 12.865,250.723 L13.117,251.08 L13.117,57.135 L12.865,57.492 C19.669,55.915 32.324,51.973 40.611,43.278 C48.853,34.63 53.078,22.005 54.863,15.246 L54.565,15.504 L693.445,15.504 L693.146,15.246 C694.926,22 699.148,34.621 707.398,43.278 C715.686,51.973 728.339,55.916 735.145,57.492 L734.893,57.135 L734.893,251.08 L735.145,250.723 L735.145,250.723 Z" id="Fill-4" fill="#1A1918" sketch:type="MSShapeGroup"></path>
            <path d="M485.296,164.989 L485.296,144.28 L535.684,144.28 L535.684,115.987 L485.292,115.987 L485.292,98.542 L544.531,98.542 L544.531,68.086 L445.612,68.086 L445.612,196.545 L546.907,196.545 L546.907,164.989 L485.296,164.989 L485.296,164.989 Z M329.15,162.514 C325.38,166.771 319.811,168.898 312.441,168.898 C304.845,168.898 298.95,166.261 294.755,160.985 C290.561,155.709 288.464,145.959 288.464,131.734 C288.464,120.251 290.221,111.828 293.733,106.464 C298.38,99.235 305.066,95.621 313.792,95.621 C317.645,95.621 321.13,96.441 324.247,98.08 C327.363,99.719 334.449,106.45 334.449,116.178 L371.531,116.178 C368.799,92.511 358.903,82.289 349.913,75.743 C340.923,69.197 328.572,65.924 312.862,65.924 C292.784,65.924 277.257,71.629 266.281,83.037 C255.306,94.446 249.82,110.771 249.82,132.01 C249.82,147.941 252.938,161.014 259.176,171.225 C265.414,181.437 272.829,188.57 281.421,192.625 C290.012,196.677 301.085,198.709 314.639,198.709 C325.809,198.709 335.01,197.04 342.24,193.715 C349.471,190.387 355.525,185.452 360.401,178.914 C365.28,172.37 370.361,164.875 372.702,145.762 L335.229,146.217 C333.528,154.32 332.919,158.262 329.15,162.514 L329.15,162.514 Z M109.308,152.17 L122.228,104.8 L135.229,152.17 L109.308,152.17 L109.308,152.17 Z M102.592,68.086 L58.259,196.545 L97.19,196.545 L102.901,178.113 L141.327,178.113 L147.25,196.545 L187.073,196.545 L142.558,68.086 L102.592,68.086 L102.592,68.086 Z" id="Fill-5" fill="#9D1535" sketch:type="MSShapeGroup"></path>
            <path d="M472.025,164.989 L472.025,144.28 L522.413,144.28 L522.413,115.987 L472.021,115.987 L472.021,98.542 L531.259,98.542 L531.259,68.086 L432.34,68.086 L432.34,196.545 L533.634,196.545 L533.634,164.989 L472.025,164.989 L472.025,164.989 Z M315.878,162.514 C312.109,166.771 306.539,168.898 299.17,168.898 C291.573,168.898 285.679,166.261 281.483,160.985 C277.289,155.709 275.192,145.959 275.192,131.734 C275.192,120.251 276.949,111.828 280.462,106.464 C285.108,99.235 291.794,95.621 300.521,95.621 C304.374,95.621 307.858,96.441 310.974,98.08 C314.091,99.719 321.177,106.45 321.177,116.178 L358.26,116.178 C355.527,92.511 345.632,82.289 336.641,75.743 C327.651,69.197 315.3,65.924 299.591,65.924 C279.512,65.924 263.985,71.629 253.01,83.037 C242.034,94.446 236.548,110.771 236.548,132.01 C236.548,147.941 239.666,161.014 245.904,171.225 C252.142,181.437 259.557,188.57 268.149,192.625 C276.74,196.677 287.813,198.709 301.367,198.709 C312.538,198.709 321.738,197.04 328.968,193.715 C336.199,190.387 342.252,185.452 347.129,178.914 C352.008,172.37 357.088,164.875 359.431,145.762 L321.957,146.217 C320.256,154.32 319.648,158.262 315.878,162.514 L315.878,162.514 Z M96.036,152.17 L108.955,104.8 L121.957,152.17 L96.036,152.17 L96.036,152.17 Z M89.321,68.086 L44.988,196.545 L83.918,196.545 L89.628,178.113 L128.055,178.113 L133.979,196.545 L173.802,196.545 L129.285,68.086 L89.321,68.086 L89.321,68.086 Z" id="Fill-6" fill="#CB7E7A" sketch:type="MSShapeGroup"></path>
            <path d="M85.27,250.077 L85.27,225.3 L90.173,225.3 L90.173,235.058 L99.81,235.058 L99.81,225.3 L104.713,225.3 L104.713,250.077 L99.81,250.077 L99.81,239.24 L90.173,239.24 L90.173,250.077 L85.27,250.077" id="Fill-7" fill="#9D1535" sketch:type="MSShapeGroup"></path>
            <path d="M113.471,241.102 C113.471,242.88 113.884,244.243 114.711,245.187 C115.538,246.133 116.559,246.606 117.773,246.606 C118.986,246.606 120.002,246.133 120.826,245.187 C121.646,244.243 122.058,242.869 122.058,241.067 C122.058,239.314 121.646,237.962 120.826,237.017 C120.002,236.071 118.986,235.598 117.773,235.598 C116.559,235.598 115.538,236.071 114.711,237.017 C113.884,237.962 113.471,239.324 113.471,241.102 L113.471,241.102 Z M108.688,240.849 C108.688,239.275 109.069,237.746 109.832,236.273 C110.596,234.797 111.677,233.671 113.075,232.895 C114.474,232.116 116.035,231.729 117.759,231.729 C120.423,231.729 122.607,232.612 124.31,234.371 C126.013,236.134 126.864,238.361 126.864,241.053 C126.864,243.765 126.004,246.013 124.286,247.798 C122.566,249.583 120.402,250.476 117.792,250.476 C116.178,250.476 114.638,250.106 113.174,249.36 C111.709,248.619 110.596,247.528 109.832,246.095 C109.069,244.658 108.688,242.908 108.688,240.849 L108.688,240.849 Z" id="Fill-8" fill="#1A1918" sketch:type="MSShapeGroup"></path>
            <path d="M130.181,232.128 L134.474,232.128 L134.474,234.577 C136.013,232.679 137.846,231.729 139.971,231.729 C141.101,231.729 142.081,231.967 142.911,232.441 C143.742,232.914 144.423,233.631 144.954,234.591 C145.729,233.631 146.564,232.914 147.461,232.441 C148.358,231.967 149.316,231.729 150.335,231.729 C151.629,231.729 152.726,231.996 153.622,232.533 C154.519,233.066 155.19,233.852 155.632,234.886 C155.954,235.655 156.114,236.892 156.114,238.606 L156.114,250.077 L151.455,250.077 L151.455,239.829 C151.455,238.051 151.294,236.903 150.972,236.385 C150.539,235.708 149.875,235.371 148.977,235.371 C148.322,235.371 147.708,235.574 147.131,235.978 C146.555,236.385 146.139,236.978 145.884,237.76 C145.628,238.543 145.501,239.781 145.501,241.464 L145.501,250.077 L140.842,250.077 L140.842,240.25 C140.842,238.506 140.758,237.379 140.593,236.875 C140.426,236.367 140.169,235.989 139.818,235.74 C139.471,235.495 138.997,235.371 138.397,235.371 C137.677,235.371 137.028,235.569 136.452,235.961 C135.875,236.355 135.464,236.924 135.214,237.668 C134.965,238.412 134.84,239.644 134.84,241.366 L134.84,250.077 L130.181,250.077 L130.181,232.128" id="Fill-9" fill="#1A1918" sketch:type="MSShapeGroup"></path>
            <path d="M171.205,239.58 C171.171,238.205 170.823,237.159 170.159,236.445 C169.495,235.73 168.689,235.371 167.738,235.371 C166.719,235.371 165.879,235.748 165.215,236.503 C164.552,237.258 164.226,238.286 164.237,239.58 L171.205,239.58 L171.205,239.58 Z M170.961,244.359 L175.596,245.156 C174.999,246.891 174.055,248.21 172.765,249.117 C171.475,250.023 169.862,250.476 167.924,250.476 C164.859,250.476 162.588,249.459 161.117,247.418 C159.953,245.786 159.373,243.727 159.373,241.238 C159.373,238.265 160.137,235.94 161.663,234.254 C163.19,232.573 165.121,231.729 167.457,231.729 C170.079,231.729 172.149,232.612 173.666,234.375 C175.181,236.139 175.907,238.84 175.84,242.482 L164.154,242.482 C164.188,243.883 164.564,244.972 165.286,245.753 C166.006,246.528 166.905,246.919 167.981,246.919 C168.713,246.919 169.329,246.715 169.829,246.315 C170.329,245.91 170.704,245.259 170.961,244.359 L170.961,244.359 Z" id="Fill-10" fill="#1A1918" sketch:type="MSShapeGroup"></path>
            <path d="M189.13,250.077 L189.13,225.3 L194.034,225.3 L194.034,235.058 L203.67,235.058 L203.67,225.3 L208.574,225.3 L208.574,250.077 L203.67,250.077 L203.67,239.24 L194.034,239.24 L194.034,250.077 L189.13,250.077" id="Fill-11" fill="#9D1535" sketch:type="MSShapeGroup"></path>
            <path d="M224.089,239.58 C224.056,238.205 223.707,237.159 223.044,236.445 C222.379,235.73 221.573,235.371 220.622,235.371 C219.604,235.371 218.763,235.748 218.1,236.503 C217.436,237.258 217.11,238.286 217.121,239.58 L224.089,239.58 L224.089,239.58 Z M223.845,244.359 L228.48,245.156 C227.883,246.891 226.939,248.21 225.648,249.117 C224.359,250.023 222.745,250.476 220.81,250.476 C217.741,250.476 215.472,249.459 214,247.418 C212.837,245.786 212.256,243.727 212.256,241.238 C212.256,238.265 213.021,235.94 214.546,234.254 C216.074,232.573 218.006,231.729 220.341,231.729 C222.963,231.729 225.033,232.612 226.55,234.375 C228.065,236.139 228.79,238.84 228.724,242.482 L217.038,242.482 C217.071,243.883 217.449,244.972 218.169,245.753 C218.891,246.528 219.789,246.919 220.866,246.919 C221.599,246.919 222.213,246.715 222.713,246.315 C223.212,245.91 223.59,245.259 223.845,244.359 L223.845,244.359 Z" id="Fill-12" fill="#1A1918" sketch:type="MSShapeGroup"></path>
            <path d="M242.234,241.515 C241.638,241.713 240.695,241.956 239.406,242.234 C238.114,242.51 237.271,242.781 236.875,243.05 C236.268,243.485 235.964,244.032 235.964,244.702 C235.964,245.355 236.207,245.924 236.691,246.4 C237.176,246.88 237.795,247.119 238.545,247.119 C239.383,247.119 240.183,246.842 240.944,246.287 C241.506,245.864 241.876,245.344 242.052,244.732 C242.173,244.335 242.234,243.571 242.234,242.449 L242.234,241.515 L242.234,241.515 Z M236.013,237.646 L231.792,236.878 C232.268,235.128 233.087,233.832 234.249,232.992 C235.411,232.15 237.137,231.729 239.427,231.729 C241.506,231.729 243.055,231.977 244.073,232.483 C245.092,232.981 245.809,233.617 246.223,234.389 C246.638,235.161 246.845,236.579 246.845,238.638 L246.772,244.182 C246.772,245.756 246.847,246.919 246.999,247.669 C247.148,248.419 247.432,249.22 247.845,250.077 L243.234,250.077 C243.112,249.76 242.962,249.288 242.786,248.665 C242.708,248.384 242.654,248.196 242.62,248.103 C241.824,248.896 240.973,249.486 240.064,249.881 C239.159,250.277 238.19,250.476 237.161,250.476 C235.347,250.476 233.918,249.977 232.872,248.977 C231.827,247.978 231.304,246.72 231.304,245.191 C231.304,244.185 231.541,243.285 232.017,242.493 C232.491,241.703 233.157,241.099 234.012,240.675 C234.868,240.255 236.101,239.889 237.713,239.574 C239.887,239.161 241.394,238.773 242.234,238.414 L242.234,237.934 C242.234,237.012 242.013,236.355 241.572,235.961 C241.132,235.566 240.299,235.371 239.073,235.371 C238.247,235.371 237.6,235.537 237.139,235.877 C236.675,236.213 236.3,236.804 236.013,237.646 L236.013,237.646 Z" id="Fill-13" fill="#1A1918" sketch:type="MSShapeGroup"></path>
            <path d="M251.424,225.3 L256.083,225.3 L256.083,250.077 L251.424,250.077 L251.424,225.3 Z" id="Fill-14" fill="#1A1918" sketch:type="MSShapeGroup"></path>
            <path d="M268.941,232.128 L268.941,235.911 L265.745,235.911 L265.745,243.151 C265.745,244.615 265.775,245.468 265.836,245.711 C265.897,245.957 266.036,246.155 266.252,246.311 C266.469,246.471 266.732,246.549 267.045,246.549 C267.478,246.549 268.105,246.397 268.928,246.095 L269.331,249.767 C268.247,250.24 267.019,250.476 265.647,250.476 C264.807,250.476 264.049,250.333 263.375,250.045 C262.7,249.757 262.204,249.386 261.89,248.928 C261.575,248.474 261.356,247.858 261.234,247.08 C261.134,246.528 261.085,245.412 261.085,243.734 L261.085,235.911 L258.938,235.911 L258.938,232.128 L261.085,232.128 L261.085,228.572 L265.745,225.784 L265.745,232.128 L268.941,232.128" id="Fill-15" fill="#1A1918" sketch:type="MSShapeGroup"></path>
            <path d="M276.793,225.3 L276.793,234.463 C278.3,232.639 280.099,231.729 282.191,231.729 C283.265,231.729 284.234,231.933 285.097,232.337 C285.96,232.744 286.611,233.262 287.049,233.891 C287.487,234.525 287.786,235.221 287.946,235.986 C288.105,236.753 288.186,237.941 288.186,239.552 L288.186,250.077 L283.527,250.077 L283.527,240.604 C283.527,238.724 283.438,237.532 283.262,237.024 C283.083,236.519 282.771,236.117 282.322,235.819 C281.873,235.519 281.31,235.371 280.634,235.371 C279.858,235.371 279.166,235.563 278.556,235.946 C277.946,236.327 277.5,236.903 277.217,237.674 C276.934,238.446 276.793,239.587 276.793,241.095 L276.793,250.077 L272.133,250.077 L272.133,225.3 L276.793,225.3" id="Fill-16" fill="#1A1918" sketch:type="MSShapeGroup"></path>
            <path d="M317.997,240.973 L322.755,242.482 C322.025,245.195 320.81,247.211 319.111,248.526 C317.412,249.845 315.256,250.503 312.644,250.503 C309.413,250.503 306.755,249.379 304.675,247.132 C302.594,244.89 301.554,241.817 301.554,237.922 C301.554,233.803 302.599,230.602 304.691,228.324 C306.783,226.044 309.532,224.902 312.94,224.902 C315.917,224.902 318.333,225.795 320.192,227.58 C321.299,228.636 322.128,230.152 322.681,232.128 L317.828,233.322 C317.539,232.04 316.938,231.025 316.023,230.284 C315.108,229.54 313.998,229.169 312.69,229.169 C310.883,229.169 309.418,229.827 308.292,231.146 C307.167,232.466 306.604,234.599 306.604,237.55 C306.604,240.683 307.158,242.912 308.268,244.243 C309.377,245.572 310.817,246.237 312.593,246.237 C313.901,246.237 315.026,245.813 315.968,244.966 C316.911,244.121 317.587,242.792 317.997,240.973" id="Fill-17" fill="#9D1535" sketch:type="MSShapeGroup"></path>
            <path d="M336.635,241.515 C336.039,241.713 335.097,241.956 333.805,242.234 C332.515,242.51 331.672,242.781 331.276,243.05 C330.668,243.485 330.365,244.032 330.365,244.702 C330.365,245.355 330.607,245.924 331.092,246.4 C331.579,246.88 332.195,247.119 332.945,247.119 C333.784,247.119 334.583,246.842 335.345,246.287 C335.907,245.864 336.277,245.344 336.454,244.732 C336.574,244.335 336.635,243.571 336.635,242.449 L336.635,241.515 L336.635,241.515 Z M330.414,237.646 L326.193,236.878 C326.669,235.128 327.488,233.832 328.65,232.992 C329.812,232.15 331.538,231.729 333.828,231.729 C335.908,231.729 337.457,231.977 338.474,232.483 C339.493,232.981 340.209,233.617 340.624,234.389 C341.039,235.161 341.246,236.579 341.246,238.638 L341.173,244.182 C341.173,245.756 341.249,246.919 341.398,247.669 C341.551,248.419 341.832,249.22 342.246,250.077 L337.635,250.077 C337.514,249.76 337.364,249.288 337.188,248.665 C337.109,248.384 337.055,248.196 337.021,248.103 C336.225,248.896 335.373,249.486 334.467,249.881 C333.558,250.277 332.591,250.476 331.562,250.476 C329.749,250.476 328.319,249.977 327.273,248.977 C326.228,247.978 325.706,246.72 325.706,245.191 C325.706,244.185 325.943,243.285 326.418,242.493 C326.892,241.703 327.557,241.099 328.414,240.675 C329.269,240.255 330.502,239.889 332.114,239.574 C334.288,239.161 335.796,238.773 336.635,238.414 L336.635,237.934 C336.635,237.012 336.414,236.355 335.974,235.961 C335.531,235.566 334.699,235.371 333.476,235.371 C332.648,235.371 332.002,235.537 331.539,235.877 C331.076,236.213 330.7,236.804 330.414,237.646 L330.414,237.646 Z" id="Fill-18" fill="#1A1918" sketch:type="MSShapeGroup"></path>
            <path d="M350.291,250.077 L345.632,250.077 L345.632,232.128 L349.974,232.128 L349.974,234.677 C350.715,233.472 351.38,232.682 351.972,232.298 C352.56,231.921 353.234,231.729 353.984,231.729 C355.045,231.729 356.067,232.028 357.049,232.625 L355.598,236.772 C354.814,236.255 354.082,235.997 353.408,235.997 C352.755,235.997 352.204,236.181 351.752,236.544 C351.297,236.911 350.941,237.572 350.682,238.528 C350.423,239.484 350.291,241.49 350.291,244.541 L350.291,250.077" id="Fill-19" fill="#1A1918" sketch:type="MSShapeGroup"></path>
            <path d="M369.519,239.58 C369.485,238.205 369.138,237.159 368.473,236.445 C367.811,235.73 367.003,235.371 366.051,235.371 C365.033,235.371 364.195,235.748 363.529,236.503 C362.865,237.258 362.542,238.286 362.55,239.58 L369.519,239.58 L369.519,239.58 Z M369.274,244.359 L373.91,245.156 C373.313,246.891 372.367,248.21 371.08,249.117 C369.79,250.023 368.177,250.476 366.237,250.476 C363.173,250.476 360.901,249.459 359.431,247.418 C358.266,245.786 357.686,243.727 357.686,241.238 C357.686,238.265 358.449,235.94 359.977,234.254 C361.505,232.573 363.435,231.729 365.771,231.729 C368.394,231.729 370.464,232.612 371.98,234.375 C373.496,236.139 374.221,238.84 374.154,242.482 L362.468,242.482 C362.502,243.883 362.876,244.972 363.599,245.753 C364.322,246.528 365.219,246.919 366.295,246.919 C367.027,246.919 367.644,246.715 368.144,246.315 C368.643,245.91 369.019,245.259 369.274,244.359 L369.274,244.359 Z" id="Fill-20" fill="#1A1918" sketch:type="MSShapeGroup"></path>
            <path d="M386.172,242.055 L390.955,241.571 C391.24,243.207 391.827,244.406 392.708,245.172 C393.586,245.939 394.775,246.322 396.27,246.322 C397.853,246.322 399.048,245.98 399.849,245.298 C400.652,244.615 401.055,243.818 401.055,242.905 C401.055,242.318 400.886,241.821 400.548,241.408 C400.209,240.996 399.622,240.641 398.779,240.335 C398.203,240.131 396.891,239.773 394.843,239.25 C392.205,238.585 390.357,237.766 389.292,236.799 C387.797,235.435 387.051,233.774 387.051,231.815 C387.051,230.552 387.402,229.372 388.102,228.274 C388.807,227.175 389.817,226.339 391.141,225.764 C392.46,225.191 394.055,224.902 395.928,224.902 C398.977,224.902 401.277,225.586 402.821,226.95 C404.364,228.313 405.174,230.137 405.25,232.412 L400.346,232.612 C400.137,231.337 399.686,230.42 398.997,229.863 C398.304,229.305 397.27,229.028 395.888,229.028 C394.46,229.028 393.344,229.326 392.538,229.923 C392.019,230.308 391.76,230.819 391.76,231.462 C391.76,232.049 392.002,232.55 392.488,232.967 C393.108,233.497 394.611,234.051 397.001,234.627 C399.389,235.205 401.155,235.797 402.302,236.412 C403.446,237.027 404.341,237.867 404.989,238.929 C405.634,239.997 405.958,241.308 405.958,242.876 C405.958,244.294 405.572,245.626 404.796,246.867 C404.021,248.103 402.927,249.025 401.508,249.628 C400.093,250.23 398.328,250.533 396.214,250.533 C393.137,250.533 390.774,249.81 389.126,248.366 C387.477,246.923 386.493,244.818 386.172,242.055" id="Fill-21" fill="#9D1535" sketch:type="MSShapeGroup"></path>
            <path d="M420.525,239.58 C420.493,238.205 420.145,237.159 419.48,236.445 C418.819,235.73 418.01,235.371 417.058,235.371 C416.04,235.371 415.202,235.748 414.537,236.503 C413.872,237.258 413.548,238.286 413.558,239.58 L420.525,239.58 L420.525,239.58 Z M420.283,244.359 L424.918,245.156 C424.32,246.891 423.375,248.21 422.088,249.117 C420.797,250.023 419.183,250.476 417.244,250.476 C414.179,250.476 411.908,249.459 410.438,247.418 C409.273,245.786 408.694,243.727 408.694,241.238 C408.694,238.265 409.456,235.94 410.984,234.254 C412.511,232.573 414.442,231.729 416.778,231.729 C419.401,231.729 421.471,232.612 422.987,234.375 C424.502,236.139 425.228,238.84 425.161,242.482 L413.475,242.482 C413.508,243.883 413.884,244.972 414.607,245.753 C415.329,246.528 416.226,246.919 417.302,246.919 C418.035,246.919 418.65,246.715 419.151,246.315 C419.651,245.91 420.026,245.259 420.283,244.359 L420.283,244.359 Z" id="Fill-22" fill="#1A1918" sketch:type="MSShapeGroup"></path>
            <path d="M433.425,250.077 L428.766,250.077 L428.766,232.128 L433.108,232.128 L433.108,234.677 C433.85,233.472 434.514,232.682 435.106,232.298 C435.695,231.921 436.365,231.729 437.119,231.729 C438.18,231.729 439.203,232.028 440.183,232.625 L438.732,236.772 C437.949,236.255 437.216,235.997 436.542,235.997 C435.89,235.997 435.338,236.181 434.884,236.544 C434.432,236.911 434.076,237.572 433.816,238.528 C433.554,239.484 433.425,241.49 433.425,244.541 L433.425,250.077" id="Fill-23" fill="#1A1918" sketch:type="MSShapeGroup"></path>
            <path d="M447.055,250.077 L439.955,232.128 L444.859,232.128 L448.167,241.288 L449.128,244.349 C449.381,243.571 449.542,243.058 449.607,242.809 C449.762,242.304 449.927,241.795 450.103,241.288 L453.447,232.128 L458.252,232.128 L451.254,250.077 L447.055,250.077" id="Fill-24" fill="#1A1918" sketch:type="MSShapeGroup"></path>
            <path d="M461.084,232.128 L465.746,232.128 L465.746,250.077 L461.084,250.077 L461.084,232.128 Z M461.084,225.3 L465.746,225.3 L465.746,229.68 L461.084,229.68 L461.084,225.3 Z" id="Fill-25" fill="#1A1918" sketch:type="MSShapeGroup"></path>
            <path d="M485.899,237.389 L481.313,238.244 C481.157,237.319 480.803,236.626 480.255,236.157 C479.706,235.69 478.993,235.456 478.118,235.456 C476.949,235.456 476.023,235.865 475.327,236.679 C474.635,237.496 474.287,238.863 474.287,240.779 C474.287,242.908 474.637,244.409 475.342,245.288 C476.046,246.165 476.993,246.606 478.18,246.606 C479.066,246.606 479.794,246.351 480.358,245.838 C480.926,245.327 481.322,244.445 481.557,243.193 L486.144,243.99 C485.668,246.13 484.753,247.745 483.402,248.836 C482.055,249.927 480.243,250.476 477.973,250.476 C475.394,250.476 473.339,249.647 471.805,247.993 C470.271,246.336 469.505,244.046 469.505,241.12 C469.505,238.159 470.273,235.854 471.811,234.205 C473.351,232.554 475.43,231.729 478.05,231.729 C480.197,231.729 481.901,232.196 483.171,233.127 C484.436,234.062 485.347,235.481 485.899,237.389" id="Fill-26" fill="#1A1918" sketch:type="MSShapeGroup"></path>
            <path d="M499.895,239.58 C499.861,238.205 499.512,237.159 498.848,236.445 C498.187,235.73 497.378,235.371 496.427,235.371 C495.409,235.371 494.569,235.748 493.905,236.503 C493.24,237.258 492.917,238.286 492.926,239.58 L499.895,239.58 L499.895,239.58 Z M499.65,244.359 L504.286,245.156 C503.688,246.891 502.744,248.21 501.456,249.117 C500.167,250.023 498.553,250.476 496.613,250.476 C493.548,250.476 491.277,249.459 489.806,247.418 C488.641,245.786 488.062,243.727 488.062,241.238 C488.062,238.265 488.824,235.94 490.352,234.254 C491.879,232.573 493.81,231.729 496.146,231.729 C498.768,231.729 500.839,232.612 502.355,234.375 C503.871,236.139 504.596,238.84 504.529,242.482 L492.844,242.482 C492.876,243.883 493.252,244.972 493.975,245.753 C494.697,246.528 495.595,246.919 496.671,246.919 C497.403,246.919 498.018,246.715 498.519,246.315 C499.019,245.91 499.395,245.259 499.65,244.359 L499.65,244.359 Z" id="Fill-27" fill="#1A1918" sketch:type="MSShapeGroup"></path>
            <path d="M506.695,244.986 L511.378,244.245 C511.577,245.159 511.983,245.852 512.59,246.322 C513.197,246.798 514.051,247.033 515.145,247.033 C516.35,247.033 517.255,246.81 517.866,246.358 C518.274,246.044 518.479,245.622 518.479,245.092 C518.479,244.732 518.37,244.437 518.146,244.199 C517.915,243.975 517.396,243.765 516.587,243.578 C512.831,242.732 510.449,241.963 509.443,241.266 C508.048,240.298 507.354,238.952 507.354,237.231 C507.354,235.68 507.957,234.375 509.163,233.314 C510.371,232.26 512.239,231.729 514.773,231.729 C517.185,231.729 518.978,232.131 520.153,232.932 C521.327,233.731 522.134,234.916 522.578,236.48 L518.186,237.305 C517.998,236.608 517.64,236.071 517.116,235.701 C516.591,235.329 515.84,235.142 514.868,235.142 C513.639,235.142 512.757,235.317 512.227,235.666 C511.874,235.915 511.696,236.234 511.696,236.626 C511.696,236.962 511.851,237.252 512.16,237.486 C512.581,237.802 514.029,238.248 516.509,238.821 C518.991,239.392 520.719,240.095 521.706,240.931 C522.678,241.775 523.163,242.951 523.163,244.462 C523.163,246.105 522.489,247.52 521.137,248.701 C519.787,249.885 517.789,250.476 515.145,250.476 C512.742,250.476 510.841,249.985 509.443,248.996 C508.042,248.015 507.128,246.674 506.695,244.986" id="Fill-28" fill="#1A1918" sketch:type="MSShapeGroup"></path>
            <path d="M536.55,225.3 L541.454,225.3 L541.454,250.077 L536.55,250.077 L536.55,225.3 Z" id="Fill-29" fill="#9D1535" sketch:type="MSShapeGroup"></path>
            <path d="M562.118,250.077 L557.458,250.077 L557.458,240.923 C557.458,238.991 557.358,237.738 557.159,237.169 C556.96,236.601 556.638,236.159 556.19,235.843 C555.741,235.527 555.201,235.371 554.574,235.371 C553.765,235.371 553.042,235.593 552.399,236.046 C551.758,236.498 551.319,237.091 551.082,237.835 C550.844,238.578 550.725,239.951 550.725,241.956 L550.725,250.077 L546.065,250.077 L546.065,232.128 L550.408,232.128 L550.408,234.763 C551.942,232.739 553.875,231.729 556.205,231.729 C557.233,231.729 558.171,231.918 559.019,232.294 C559.871,232.671 560.514,233.156 560.949,233.742 C561.385,234.325 561.691,234.991 561.862,235.733 C562.033,236.477 562.118,237.54 562.118,238.926 L562.118,250.077" id="Fill-30" fill="#1A1918" sketch:type="MSShapeGroup"></path>
            <path d="M582.242,237.389 L577.656,238.244 C577.5,237.319 577.146,236.626 576.597,236.157 C576.048,235.69 575.335,235.456 574.459,235.456 C573.292,235.456 572.365,235.865 571.669,236.679 C570.977,237.496 570.629,238.863 570.629,240.779 C570.629,242.908 570.98,244.409 571.684,245.288 C572.388,246.165 573.333,246.606 574.524,246.606 C575.409,246.606 576.136,246.351 576.701,245.838 C577.268,245.327 577.665,244.445 577.9,243.193 L582.486,243.99 C582.009,246.13 581.095,247.745 579.745,248.836 C578.396,249.927 576.585,250.476 574.316,250.476 C571.736,250.476 569.681,249.647 568.147,247.993 C566.613,246.336 565.848,244.046 565.848,241.12 C565.848,238.159 566.617,235.854 568.153,234.205 C569.692,232.554 571.773,231.729 574.393,231.729 C576.54,231.729 578.245,232.196 579.512,233.127 C580.778,234.062 581.69,235.481 582.242,237.389" id="Fill-31" fill="#1A1918" sketch:type="MSShapeGroup"></path>
            <path d="M202.372,158.631 C202.372,158.631 204.581,153.435 208.485,151.312 C211.862,149.476 218.699,147.409 222.777,144.597 C226.856,141.785 227.938,135.955 227.938,131.588 C227.938,127.222 225.858,119.853 215.455,119.853 C205.051,119.853 202.304,130.139 202.304,130.139 L202.045,130.139 C202.045,130.139 199.299,119.853 188.895,119.853 C178.492,119.853 176.412,127.222 176.412,131.588 C176.412,135.955 177.493,141.785 181.572,144.597 C185.651,147.409 192.488,149.476 195.865,151.312 C199.769,153.435 202.213,159.058 202.213,159.058 L202.372,158.631" id="Fill-32" fill="#9D1535" sketch:type="MSShapeGroup"></path>
            <path d="M395.203,158.631 C395.203,158.631 397.41,153.435 401.314,151.312 C404.692,149.476 411.529,147.409 415.609,144.597 C419.687,141.785 420.77,135.955 420.77,131.588 C420.77,127.222 418.69,119.853 408.285,119.853 C397.88,119.853 395.135,130.139 395.135,130.139 L394.876,130.139 C394.876,130.139 392.128,119.853 381.726,119.853 C371.324,119.853 369.245,127.222 369.245,131.588 C369.245,135.955 370.324,141.785 374.404,144.597 C378.481,147.409 385.319,149.476 388.694,151.312 C392.598,153.435 395.043,159.058 395.043,159.058 L395.203,158.631" id="Fill-33" fill="#9D1535" sketch:type="MSShapeGroup"></path>
            <path d="M574.762,158.631 C574.762,158.631 576.969,153.435 580.873,151.312 C584.251,149.476 591.088,147.409 595.168,144.597 C599.247,141.785 600.33,135.955 600.33,131.588 C600.33,127.222 598.25,119.853 587.843,119.853 C577.438,119.853 574.694,130.139 574.694,130.139 L574.435,130.139 C574.435,130.139 571.688,119.853 561.286,119.853 C550.882,119.853 548.803,127.222 548.803,131.588 C548.803,135.955 549.883,141.785 553.963,144.597 C558.042,147.409 564.877,149.476 568.253,151.312 C572.158,153.435 574.603,159.058 574.603,159.058 L574.762,158.631" id="Fill-34" fill="#9D1535" sketch:type="MSShapeGroup"></path>
            <path d="M155.438,72.488 C155.631,73.384 156.028,73.97 156.632,74.25 C157.235,74.526 157.899,74.499 158.623,74.166 C159.296,73.86 159.877,73.364 160.37,72.679 C160.861,71.99 161.19,71.137 161.352,70.105 C161.516,69.087 161.515,68.174 161.346,67.378 C161.152,66.471 160.729,65.864 160.074,65.55 C159.421,65.234 158.744,65.238 158.046,65.556 C156.96,66.052 156.186,67.012 155.722,68.432 C155.26,69.853 155.164,71.204 155.438,72.488 L155.438,72.488 Z M165.003,73.707 L161.526,75.297 L161.544,73.802 C161.005,74.699 160.443,75.421 159.854,75.971 C159.266,76.524 158.564,76.98 157.756,77.35 C156.351,77.991 155.115,78.074 154.054,77.59 C152.99,77.1 152.274,75.998 151.904,74.265 C151.477,72.26 151.712,70.165 152.608,67.979 C153.505,65.792 154.978,64.232 157.024,63.296 C158.873,62.451 160.398,62.484 161.607,63.396 L161.77,56.249 L165.437,54.574 L165.003,73.707 L165.003,73.707 Z" id="Fill-35" fill="#1A1918" sketch:type="MSShapeGroup"></path>
            <path d="M167.437,58.87 L171.107,57.193 L170.863,65.455 C170.83,66.443 170.836,67.047 170.883,67.268 C170.961,67.631 171.158,67.883 171.476,68.018 C171.795,68.16 172.161,68.135 172.571,67.947 C172.863,67.814 173.141,67.624 173.4,67.368 C173.663,67.121 173.919,66.797 174.166,66.415 C174.417,66.03 174.629,65.626 174.8,65.202 C174.973,64.773 175.108,64.256 175.208,63.641 C175.273,63.193 175.319,62.578 175.345,61.806 L175.546,55.165 L179.213,53.489 L178.8,67.404 L175.371,68.971 L175.417,67.14 C174.308,69.074 172.94,70.413 171.312,71.158 C170.281,71.629 169.406,71.707 168.689,71.383 C167.972,71.065 167.51,70.408 167.299,69.416 C167.207,68.985 167.18,68.057 167.216,66.628 L167.437,58.87" id="Fill-36" fill="#1A1918" sketch:type="MSShapeGroup"></path>
            <path d="M183.781,65.127 L184.025,46.079 L187.691,44.407 L187.448,63.453 L183.781,65.127" id="Fill-37" fill="#1A1918" sketch:type="MSShapeGroup"></path>
            <path d="M190.54,51.106 L190.563,48.304 L192.36,47.484 L192.378,45.298 L196.061,41.066 L196.019,45.812 L198.264,44.785 L198.24,47.586 L195.996,48.611 L195.922,54.387 C195.899,55.436 195.902,56.028 195.93,56.16 C195.986,56.42 196.12,56.579 196.331,56.644 C196.542,56.704 196.884,56.63 197.358,56.412 C197.521,56.338 197.922,56.122 198.566,55.767 L198.532,58.53 C197.922,58.937 197.285,59.291 196.617,59.594 C195.315,60.192 194.319,60.391 193.629,60.203 C192.94,60.011 192.509,59.509 192.334,58.692 C192.251,58.304 192.222,57.349 192.247,55.812 L192.355,50.276 L190.54,51.106" id="Fill-38" fill="#1A1918" sketch:type="MSShapeGroup"></path>
            <path d="M371.253,77.741 L367.586,79.418 L367.832,60.37 L371.499,58.693 L371.413,65.478 C372.117,64.495 372.803,63.701 373.471,63.108 C374.139,62.514 374.882,62.025 375.709,61.648 C376.82,61.141 377.762,61.034 378.534,61.326 C379.306,61.622 379.793,62.245 379.997,63.202 C380.088,63.701 380.122,64.537 380.098,65.696 L379.932,73.776 L376.264,75.453 L376.441,67.215 C376.454,66.324 376.436,65.76 376.395,65.522 C376.303,65.095 376.087,64.82 375.746,64.69 C375.405,64.562 374.988,64.612 374.494,64.838 C373.872,65.122 373.315,65.593 372.828,66.248 C372.196,67.108 371.765,68.004 371.538,68.939 C371.413,69.455 371.342,70.567 371.324,72.269 L371.253,77.741" id="Fill-39" fill="#1A1918" sketch:type="MSShapeGroup"></path>
            <path d="M383.785,53.081 L387.451,51.406 L387.408,54.789 L383.741,56.465 L383.785,53.081 L383.785,53.081 Z M383.717,58.321 L387.384,56.648 L387.208,70.454 L383.542,72.129 L383.717,58.321 L383.717,58.321 Z" id="Fill-40" fill="#1A1918" sketch:type="MSShapeGroup"></path>
            <path d="M390.796,68.815 L391.04,49.766 L394.706,48.092 L394.462,67.138 L390.796,68.815" id="Fill-41" fill="#1A1918" sketch:type="MSShapeGroup"></path>
            <path d="M401.072,58.528 C401.266,59.424 401.662,60.014 402.266,60.292 C402.87,60.566 403.53,60.541 404.257,60.211 C404.928,59.901 405.512,59.406 406.004,58.72 C406.495,58.03 406.824,57.179 406.985,56.15 C407.15,55.129 407.148,54.215 406.977,53.419 C406.785,52.512 406.36,51.905 405.708,51.59 C405.053,51.275 404.378,51.278 403.68,51.598 C402.595,52.094 401.82,53.053 401.356,54.475 C400.894,55.895 400.798,57.245 401.072,58.528 L401.072,58.528 Z M410.636,59.748 L407.159,61.337 L407.179,59.841 C406.64,60.739 406.074,61.462 405.489,62.013 C404.899,62.566 404.199,63.023 403.39,63.392 C401.985,64.034 400.75,64.114 399.687,63.63 C398.625,63.141 397.909,62.04 397.538,60.308 C397.111,58.302 397.347,56.207 398.242,54.02 C399.14,51.833 400.612,50.272 402.659,49.337 C404.503,48.494 406.033,48.526 407.242,49.437 L407.403,42.289 L411.069,40.614 L410.636,59.748 L410.636,59.748 Z" id="Fill-42" fill="#1A1918" sketch:type="MSShapeGroup"></path>
            <path d="M414.064,44.459 L417.497,42.89 L417.486,45.475 C418.376,43.123 419.566,41.613 421.047,40.935 C421.572,40.696 422.16,40.558 422.816,40.526 L421.997,43.925 C421.639,43.967 421.273,44.076 420.895,44.248 C420.264,44.537 419.666,45.052 419.104,45.792 C418.546,46.531 418.159,47.351 417.95,48.259 C417.739,49.162 417.625,50.496 417.607,52.259 L417.556,56.587 L413.89,58.263 L414.064,44.459" id="Fill-43" fill="#1A1918" sketch:type="MSShapeGroup"></path>
            <path d="M432.845,41.635 C432.822,41.484 432.8,41.365 432.782,41.283 C432.584,40.348 432.21,39.754 431.659,39.491 C431.112,39.23 430.457,39.27 429.703,39.615 C428.948,39.961 428.326,40.536 427.842,41.343 C427.358,42.143 427.12,43.111 427.128,44.245 L432.845,41.635 L432.845,41.635 Z M436.393,42.287 L427.2,46.488 C427.22,46.624 427.235,46.729 427.252,46.799 C427.43,47.635 427.833,48.185 428.458,48.465 C429.082,48.739 429.763,48.707 430.506,48.369 C431.725,47.811 432.552,46.798 432.987,45.327 L436.384,44.319 C436.003,45.826 435.344,47.127 434.403,48.224 C433.462,49.32 432.328,50.172 430.995,50.78 C429.171,51.612 427.573,51.761 426.202,51.217 C424.832,50.674 423.959,49.525 423.584,47.772 C423.219,46.058 423.408,44.298 424.152,42.494 C425.172,40.042 426.986,38.221 429.589,37.032 C431.251,36.273 432.674,36.142 433.856,36.648 C435.039,37.148 435.812,38.254 436.176,39.963 C436.352,40.782 436.423,41.557 436.393,42.287 L436.393,42.287 Z" id="Fill-44" fill="#1A1918" sketch:type="MSShapeGroup"></path>
            <path d="M439.074,33.03 L442.552,31.442 L442.553,33.237 C443.283,32.139 443.992,31.267 444.689,30.623 C445.385,29.979 446.155,29.464 446.997,29.08 C448.124,28.564 449.073,28.459 449.85,28.756 C450.625,29.059 451.119,29.698 451.33,30.687 C451.406,31.124 451.43,32.022 451.41,33.379 L451.265,41.187 L447.598,42.861 L447.745,35.025 C447.762,33.855 447.751,33.158 447.728,32.945 C447.635,32.504 447.417,32.219 447.083,32.091 C446.748,31.969 446.329,32.021 445.825,32.25 C445.282,32.499 444.718,32.987 444.14,33.71 C443.565,34.43 443.157,35.224 442.922,36.081 C442.751,36.697 442.654,37.834 442.63,39.498 L442.566,45.162 L438.898,46.837 L439.074,33.03" id="Fill-45" fill="#1A1918" sketch:type="MSShapeGroup"></path>
            <path d="M553.325,79.448 L553.568,60.4 L557.236,58.724 L556.992,77.772 L553.325,79.448" id="Fill-46" fill="#1A1918" sketch:type="MSShapeGroup"></path>
            <path d="M563.603,69.163 C563.794,70.059 564.191,70.646 564.795,70.925 C565.399,71.201 566.061,71.172 566.787,70.841 C567.458,70.536 568.041,70.04 568.533,69.354 C569.023,68.666 569.351,67.812 569.516,66.781 C569.681,65.762 569.676,64.85 569.506,64.054 C569.313,63.147 568.891,62.539 568.235,62.226 C567.583,61.909 566.906,61.913 566.208,62.232 C565.122,62.728 564.347,63.688 563.884,65.108 C563.423,66.528 563.328,67.88 563.603,69.163 L563.603,69.163 Z M573.165,70.383 L569.687,71.972 L569.705,70.475 C569.168,71.375 568.605,72.096 568.016,72.646 C567.428,73.198 566.728,73.655 565.917,74.025 C564.512,74.667 563.277,74.749 562.215,74.265 C561.151,73.775 560.438,72.672 560.067,70.941 C559.638,68.936 559.873,66.838 560.772,64.654 C561.668,62.467 563.139,60.907 565.186,59.972 C567.034,59.126 568.561,59.157 569.769,60.069 L569.933,52.924 L573.597,51.25 L573.165,70.383 L573.165,70.383 Z" id="Fill-47" fill="#1A1918" sketch:type="MSShapeGroup"></path>
            <path d="M585.18,56.924 C585.156,56.775 585.136,56.656 585.118,56.574 C584.919,55.64 584.544,55.045 583.995,54.78 C583.446,54.521 582.792,54.561 582.037,54.906 C581.282,55.252 580.661,55.828 580.176,56.633 C579.689,57.432 579.455,58.4 579.462,59.538 L585.18,56.924 L585.18,56.924 Z M588.729,57.579 L579.535,61.778 C579.555,61.913 579.57,62.02 579.587,62.091 C579.766,62.926 580.166,63.478 580.791,63.756 C581.416,64.029 582.1,63.999 582.84,63.659 C584.059,63.104 584.887,62.089 585.322,60.619 L588.721,59.612 C588.339,61.117 587.68,62.419 586.739,63.513 C585.797,64.612 584.66,65.462 583.331,66.069 C581.507,66.905 579.908,67.053 578.538,66.507 C577.166,65.963 576.293,64.816 575.92,63.063 C575.553,61.349 575.743,59.588 576.487,57.785 C577.508,55.332 579.321,53.512 581.928,52.323 C583.587,51.565 585.009,51.434 586.192,51.939 C587.372,52.438 588.147,53.543 588.512,55.254 C588.687,56.071 588.758,56.846 588.729,57.579 L588.729,57.579 Z" id="Fill-48" fill="#1A1918" sketch:type="MSShapeGroup"></path>
            <path d="M591.16,48.437 L594.591,46.869 L594.58,49.454 C595.47,47.104 596.661,45.592 598.143,44.913 C598.667,44.675 599.255,44.538 599.912,44.505 L599.091,47.903 C598.735,47.946 598.368,48.055 597.991,48.227 C597.359,48.515 596.761,49.031 596.202,49.77 C595.64,50.51 595.253,51.331 595.043,52.238 C594.833,53.141 594.721,54.475 594.703,56.238 L594.651,60.567 L590.983,62.242 L591.16,48.437" id="Fill-49" fill="#1A1918" sketch:type="MSShapeGroup"></path>
            <path d="M601.36,57.501 L601.604,38.455 L605.269,36.779 L605.027,55.826 L601.36,57.501" id="Fill-50" fill="#1A1918" sketch:type="MSShapeGroup"></path>
            <path d="M607.123,41.143 L610.782,39.474 L613.036,45.287 C613.61,46.776 613.984,47.843 614.15,48.478 C614.354,46.98 614.723,45.333 615.259,43.53 L617.299,36.493 L621.189,34.717 L615.732,52.27 C615.287,53.726 614.913,54.775 614.615,55.412 C614.317,56.051 613.916,56.63 613.412,57.143 C612.907,57.659 612.264,58.093 611.481,58.452 C610.704,58.805 609.804,59.081 608.776,59.275 L608.561,56.625 C609.028,56.539 609.472,56.401 609.89,56.212 C611.014,55.697 611.771,54.482 612.157,52.569 L607.123,41.143" id="Fill-51" fill="#1A1918" sketch:type="MSShapeGroup"></path>
            <path d="M628.927,232.592 C628.927,240.044 622.888,246.086 615.434,246.086 C607.984,246.086 601.942,240.044 601.942,232.592 C601.942,225.139 607.984,219.099 615.434,219.099 C622.888,219.099 628.927,225.139 628.927,232.592" id="Fill-52" fill="#B4B5B4" sketch:type="MSShapeGroup"></path>
            <path d="M628.927,232.592 C628.927,240.044 622.888,246.086 615.434,246.086 C607.984,246.086 601.942,240.044 601.942,232.592 C601.942,225.139 607.984,219.099 615.434,219.099 C622.888,219.099 628.927,225.139 628.927,232.592 L628.927,232.592 Z" id="Stroke-53" stroke="#6D6E6C" stroke-width="1.301" sketch:type="MSShapeGroup"></path>
            <path d="M625.039,232.592 C625.039,237.895 620.74,242.196 615.434,242.196 C610.131,242.196 605.831,237.895 605.831,232.592 C605.831,227.287 610.131,222.989 615.434,222.989 C620.74,222.989 625.039,227.287 625.039,232.592" id="Fill-54" fill="#B4B5B4" sketch:type="MSShapeGroup"></path>
            <path d="M625.039,232.592 C625.039,237.895 620.74,242.196 615.434,242.196 C610.131,242.196 605.831,237.895 605.831,232.592 C605.831,227.287 610.131,222.989 615.434,222.989 C620.74,222.989 625.039,227.287 625.039,232.592 L625.039,232.592 Z" id="Stroke-55" stroke="#6D6E6C" stroke-width="0.926" sketch:type="MSShapeGroup"></path>
            <path d="M622.022,232.592 C622.022,236.231 619.073,239.18 615.434,239.18 C611.795,239.18 608.847,236.231 608.847,232.592 C608.847,228.954 611.795,226.004 615.434,226.004 C619.073,226.004 622.022,228.954 622.022,232.592" id="Fill-56" fill="#B4B5B4" sketch:type="MSShapeGroup"></path>
            <path d="M622.022,232.592 C622.022,236.231 619.073,239.18 615.434,239.18 C611.795,239.18 608.847,236.231 608.847,232.592 C608.847,228.954 611.795,226.004 615.434,226.004 C619.073,226.004 622.022,228.954 622.022,232.592 L622.022,232.592 Z" id="Stroke-57" stroke="#6D6E6C" stroke-width="0.635" sketch:type="MSShapeGroup"></path>
            <path d="M693.8,129.939 C692.054,132.479 688.879,135.019 686.181,135.178 C683.482,135.336 676.339,133.749 672.846,131.844 C669.354,129.939 663.798,123.748 663.004,122.955 C662.211,122.161 662.846,121.526 663.958,121.526 C663.958,121.526 674.911,126.288 679.514,124.542 C684.118,122.796 687.768,120.732 689.832,117.399 C691.896,114.065 692.848,109.62 693.8,109.303 C694.752,108.985 697.292,113.748 697.292,116.764 C697.292,119.78 695.546,127.399 693.8,129.939 L693.8,129.939 Z M642.051,69.3 C643.003,68.348 643.956,68.189 643.956,68.189 C643.956,68.189 645.543,67.236 647.448,67.236 C649.353,67.236 649.988,68.824 649.83,69.935 C649.67,71.046 648.876,72.316 647.29,72.634 C645.702,72.951 643.956,73.427 643.163,72.793 C642.369,72.157 641.098,70.253 642.051,69.3 L642.051,69.3 Z M660.783,65.808 C659.671,66.602 658.56,67.078 658.56,67.078 C658.56,67.078 657.608,67.395 656.814,67.236 C656.02,67.078 656.972,66.284 656.02,65.49 C655.068,64.696 653.797,64.379 653.797,64.379 C653.797,64.379 653.797,63.744 655.385,63.109 C656.972,62.474 658.243,62.157 659.354,62.157 C660.465,62.157 661.576,62.157 661.893,63.109 C662.211,64.062 661.893,65.014 660.783,65.808 L660.783,65.808 Z M698.721,106.763 C698.246,103.588 697.452,99.778 693.8,89.937 C690.149,80.094 681.418,67.236 678.561,63.744 C675.704,60.252 672.211,59.299 669.672,59.141 C667.132,58.982 664.433,59.934 662.687,60.411 C660.941,60.887 659.83,60.728 658.083,60.728 C656.337,60.728 653.322,61.204 651.893,63.427 C650.464,65.649 653.639,69.141 654.909,69.618 C656.179,70.094 657.925,69.3 659.83,68.348 C661.735,67.395 663.004,65.49 663.639,64.538 C664.275,63.586 665.704,62.95 667.767,62.474 C669.831,61.998 671.577,62.633 673.165,64.062 C674.751,65.49 681.26,72.793 683.324,77.078 C685.387,81.364 689.673,91.365 691.26,96.921 C692.848,102.477 691.896,108.668 689.039,113.112 C686.181,117.557 679.832,119.621 679.832,119.621 C676.974,120.415 675.228,121.209 667.45,119.303 C659.671,117.399 656.972,113.589 654.433,111.525 C651.893,109.461 644.75,100.096 642.369,96.921 C639.987,93.746 636.654,87.714 635.225,83.11 C633.796,78.507 636.495,76.126 637.923,75.015 C639.352,73.903 641.575,73.269 641.575,73.269 C641.575,73.269 643.163,74.38 645.226,74.539 C647.29,74.697 648.559,74.062 650.623,72.316 C652.686,70.57 651.576,67.713 650.623,66.125 C649.67,64.538 646.178,65.173 643.956,66.125 C641.733,67.078 639.829,69.3 639.829,69.3 C639.829,69.3 633.479,73.586 632.05,75.491 C630.622,77.396 630.78,83.269 632.05,87.079 C633.32,90.889 641.892,102.477 645.067,107.081 C648.242,111.684 660.624,125.018 660.624,125.018 C660.624,125.018 669.672,134.066 675.386,136.924 C681.101,139.781 686.657,138.511 692.848,134.701 C699.039,130.892 699.198,109.938 698.721,106.763 L698.721,106.763 Z" id="Fill-58" fill="#B4B5B4" sketch:type="MSShapeGroup"></path>
            <path d="M693.8,129.939 C692.054,132.479 688.879,135.019 686.181,135.178 C683.482,135.336 676.339,133.749 672.846,131.844 C669.354,129.939 663.798,123.748 663.004,122.955 C662.211,122.161 662.846,121.526 663.958,121.526 C663.958,121.526 674.911,126.288 679.514,124.542 C684.118,122.796 687.768,120.732 689.832,117.399 C691.896,114.065 692.848,109.62 693.8,109.303 C694.752,108.985 697.292,113.748 697.292,116.764 C697.292,119.78 695.546,127.399 693.8,129.939 L693.8,129.939 Z M642.051,69.3 C643.003,68.348 643.956,68.189 643.956,68.189 C643.956,68.189 645.543,67.236 647.448,67.236 C649.353,67.236 649.988,68.824 649.83,69.935 C649.67,71.046 648.876,72.316 647.29,72.634 C645.702,72.951 643.956,73.427 643.163,72.793 C642.369,72.157 641.098,70.253 642.051,69.3 L642.051,69.3 Z M660.783,65.808 C659.671,66.602 658.56,67.078 658.56,67.078 C658.56,67.078 657.608,67.395 656.814,67.236 C656.02,67.078 656.972,66.284 656.02,65.49 C655.068,64.696 653.797,64.379 653.797,64.379 C653.797,64.379 653.797,63.744 655.385,63.109 C656.972,62.474 658.243,62.157 659.354,62.157 C660.465,62.157 661.576,62.157 661.893,63.109 C662.211,64.062 661.893,65.014 660.783,65.808 L660.783,65.808 Z M698.721,106.763 C698.246,103.588 697.452,99.778 693.8,89.937 C690.149,80.094 681.418,67.236 678.561,63.744 C675.704,60.252 672.211,59.299 669.672,59.141 C667.132,58.982 664.433,59.934 662.687,60.411 C660.941,60.887 659.83,60.728 658.083,60.728 C656.337,60.728 653.322,61.204 651.893,63.427 C650.464,65.649 653.639,69.141 654.909,69.618 C656.179,70.094 657.925,69.3 659.83,68.348 C661.735,67.395 663.004,65.49 663.639,64.538 C664.275,63.586 665.704,62.95 667.767,62.474 C669.831,61.998 671.577,62.633 673.165,64.062 C674.751,65.49 681.26,72.793 683.324,77.078 C685.387,81.364 689.673,91.365 691.26,96.921 C692.848,102.477 691.896,108.668 689.039,113.112 C686.181,117.557 679.832,119.621 679.832,119.621 C676.974,120.415 675.228,121.209 667.45,119.303 C659.671,117.399 656.972,113.589 654.433,111.525 C651.893,109.461 644.75,100.096 642.369,96.921 C639.987,93.746 636.654,87.714 635.225,83.11 C633.796,78.507 636.495,76.126 637.923,75.015 C639.352,73.903 641.575,73.269 641.575,73.269 C641.575,73.269 643.163,74.38 645.226,74.539 C647.29,74.697 648.559,74.062 650.623,72.316 C652.686,70.57 651.576,67.713 650.623,66.125 C649.67,64.538 646.178,65.173 643.956,66.125 C641.733,67.078 639.829,69.3 639.829,69.3 C639.829,69.3 633.479,73.586 632.05,75.491 C630.622,77.396 630.78,83.269 632.05,87.079 C633.32,90.889 641.892,102.477 645.067,107.081 C648.242,111.684 660.624,125.018 660.624,125.018 C660.624,125.018 669.672,134.066 675.386,136.924 C681.101,139.781 686.657,138.511 692.848,134.701 C699.039,130.892 699.198,109.938 698.721,106.763 L698.721,106.763 Z" id="Stroke-59" stroke="#777776" stroke-width="0.635" stroke-linecap="round" stroke-linejoin="round" sketch:type="MSShapeGroup"></path>
            <path d="M628.558,223.279 L623.002,226.771 L624.272,229.152 L629.987,226.454 L628.558,223.279" id="Fill-60" fill="#B4B5B4" sketch:type="MSShapeGroup"></path>
            <path d="M628.558,223.279 L623.002,226.771 L624.272,229.152 L629.987,226.454 L628.558,223.279 L628.558,223.279 Z" id="Stroke-61" stroke="#6D6E6C" stroke-width="0.926" sketch:type="MSShapeGroup"></path>
            <path d="M633.083,225.977 C633.083,225.977 631.416,228.2 629.481,226.831 C628.739,226.306 627.833,223.625 628.241,222.406 C628.647,221.187 631.918,219.314 634.761,216.47 C637.606,213.627 643.904,206.515 646.138,203.876 C648.374,201.235 654.264,194.937 657.108,193.921 C659.952,192.906 674.578,191.89 681.282,191.687 C687.985,191.484 701.393,190.265 704.237,185.186 C707.081,180.107 707.284,174.827 705.456,170.763 C703.627,166.7 696.112,152.481 694.283,149.636 C692.454,146.792 689.813,141.306 688.797,140.9 C687.782,140.494 683.11,140.697 678.844,139.682 C674.578,138.666 668.484,134.4 664.421,130.743 C661.881,128.459 660.135,126.332 659.779,124.662 C659.565,123.659 659.85,122.821 660.765,122.211 C663.202,120.586 663.958,122.637 665.069,123.669 C666.179,124.701 672.688,130.971 675.149,132.003 C677.609,133.035 685.149,135.892 688.483,133.749 C691.816,131.606 695.15,128.828 695.467,122.875 C695.785,116.922 696.023,113.033 695.864,110.414 C695.706,107.795 695.546,105.572 697.213,105.414 C698.88,105.255 700.15,106.445 700.15,114.859 C700.15,123.272 699.198,126.606 698.166,129.463 C697.134,132.32 693.483,135.416 694.039,137.48 C694.594,139.543 699.277,149.067 701.579,152.639 C703.88,156.211 709.199,167.798 710.468,171.529 C711.738,175.259 711.659,184.228 710.468,186.689 C710.468,186.689 707.293,192.086 699.992,194.071 C692.689,196.054 683.085,196.054 677.45,196.293 C671.815,196.531 663.084,197.166 660.941,198.198 C658.798,199.23 649.512,208.278 645.067,213.358 C640.623,218.437 636.531,223.815 633.083,225.977" id="Fill-62" fill="#1A1918" sketch:type="MSShapeGroup"></path>
            <path d="M661.893,63.109 C661.576,62.157 660.465,62.157 659.354,62.157 C658.243,62.157 656.972,62.474 655.385,63.109 C653.797,63.744 653.797,64.379 653.797,64.379 C653.797,64.379 655.068,64.696 656.02,65.49 C656.972,66.284 656.02,67.078 656.814,67.236 C657.608,67.395 658.56,67.078 658.56,67.078 C658.56,67.078 659.671,66.602 660.783,65.808 C661.893,65.014 662.211,64.062 661.893,63.109 L661.893,63.109 Z M647.448,67.236 C645.543,67.236 643.956,68.189 643.956,68.189 C643.956,68.189 643.003,68.348 642.051,69.3 C641.098,70.253 642.369,72.157 643.163,72.793 C643.956,73.427 645.702,72.951 647.29,72.634 C648.876,72.316 649.67,71.046 649.83,69.935 C649.988,68.824 649.353,67.236 647.448,67.236 L647.448,67.236 Z" id="Fill-63" fill="#FFFFFF" sketch:type="MSShapeGroup"></path>
            <path d="M654.994,65.994 C655.477,66.473 655.651,67.082 655.382,67.353 C655.115,67.622 654.504,67.454 654.021,66.974 C653.538,66.494 653.363,65.886 653.63,65.616 C653.898,65.345 654.507,65.514 654.994,65.994" id="Fill-64" fill="#1A1918" sketch:type="MSShapeGroup"></path>
            <path d="M691.685,97.715 C691.685,97.715 694.012,105.652 694.079,109.323" id="Fill-65" fill="#B4B5B4" sketch:type="MSShapeGroup"></path>
            <path d="M691.685,97.715 C691.685,97.715 694.012,105.652 694.079,109.323" id="Stroke-66" stroke="#777776" stroke-width="0.635" stroke-linecap="round" stroke-linejoin="round" sketch:type="MSShapeGroup"></path>
            <path d="M653.341,110.573 C653.341,110.573 660.591,120.527 665.565,122.22" id="Fill-67" fill="#B4B5B4" sketch:type="MSShapeGroup"></path>
            <path d="M653.341,110.573 C653.341,110.573 660.591,120.527 665.565,122.22" id="Stroke-68" stroke="#777776" stroke-width="0.635" stroke-linecap="round" stroke-linejoin="round" sketch:type="MSShapeGroup"></path>
        </g>
    </g>
</svg>