<?xml version="1.0" encoding="UTF-8" standalone="no"?>
<svg width="21px" height="20px" viewBox="0 0 21 20" version="1.1" xmlns="http://www.w3.org/2000/svg" xmlns:xlink="http://www.w3.org/1999/xlink" xmlns:sketch="http://www.bohemiancoding.com/sketch/ns">
    <!-- Generator: Sketch 3.3 (11970) - http://www.bohemiancoding.com/sketch -->
    <title>Fill 174</title>
    <desc>Created with Sketch.</desc>
    <defs></defs>
    <g id="Page-1" stroke="none" stroke-width="1" fill="none" fill-rule="evenodd" sketch:type="MSPage">
        <g id="Desktop" sketch:type="MSArtboardGroup" transform="translate(-582.000000, -84.000000)" fill="#FFA54B">
            <g id="top-text" sketch:type="MSLayerGroup" transform="translate(582.000000, 53.000000)">
                <path d="M19.9444184,38.6636364 C19.7812337,38.8151515 19.5877673,38.8672727 19.3640193,38.8181818 L15.96518,38.2181818 C15.7408712,38.169697 15.5474048,38.0418182 15.3847809,37.8357576 C15.222157,37.630303 15.1408451,37.3993939 15.1408451,37.1448485 L15.1408451,34.4909091 C13.5594679,34.1993939 11.8771518,34.0539394 10.0938967,34.0539394 C8.3112024,34.0539394 6.62888628,34.1993939 5.04694836,34.4909091 L5.04694836,37.1448485 C5.04694836,37.3993939 4.96563641,37.630303 4.80357329,37.8357576 C4.64038863,38.0418182 4.44692227,38.169697 4.22317423,38.2181818 L0.824334898,38.8181818 C0.600026082,38.8672727 0.406559729,38.8151515 0.243935837,38.6636364 C0.0813119457,38.5121212 0,38.3084848 0,38.0539394 L0,34.4175758 L0.151408451,34.2363636 C0.25290819,34.1024242 0.42618675,33.9357576 0.67348722,33.7357576 C0.919666145,33.5357576 1.21967919,33.3151515 1.57296557,33.0727273 C1.92625196,32.830303 2.38328117,32.5872727 2.94405321,32.3448485 C3.50482525,32.1030303 4.11326291,31.8818182 4.7693662,31.6818182 C5.42546948,31.4818182 6.21896192,31.3181818 7.14984351,31.190303 C8.08128586,31.0642424 9.06207616,31 10.0938967,31 C11.5070423,31 12.8248565,31.1242424 14.0473396,31.3727273 C15.2698226,31.6212121 16.2287428,31.8939394 16.9241002,32.1909091 C17.6194575,32.4878788 18.2475222,32.8333333 18.8082942,33.2266667 C19.3690662,33.6206061 19.7223526,33.8939394 19.8681534,34.0454545 C20.0139541,34.1969697 20.1205008,34.3218182 20.1877934,34.4175758 L20.1877934,38.0539394 C20.1877934,38.3084848 20.1064815,38.5121212 19.9444184,38.6636364 C19.9444184,38.6636364 20.1064815,38.5121212 19.9444184,38.6636364 L19.9444184,38.6636364 L19.9444184,38.6636364 Z M13.458529,38.2727273 L13.4417058,38.090303 C13.4310511,37.969697 13.3631977,37.8242424 13.2403886,37.6551515 C13.116458,37.4842424 12.9482264,37.3175758 12.735133,37.1539394 C12.5220396,36.9909091 12.1855764,36.8484848 11.7263041,36.7266667 C11.2659103,36.6060606 10.7219614,36.5454545 10.0938967,36.5454545 C9.46583203,36.5454545 8.92244392,36.6084848 8.46205008,36.7363636 C8.00221701,36.8630303 7.66575378,37.0024242 7.45266041,37.1539394 C7.2401278,37.3054545 7.07133542,37.4787879 6.94796557,37.6727273 C6.82459572,37.8666667 6.75730308,38.0030303 6.74664841,38.0812121 C6.7348722,38.1606061 6.72926448,38.2242424 6.72926448,38.2727273 L6.72926448,39.1818182 L0.588810642,44.6909091 C0.431794471,44.86 0.294966093,45.0993939 0.177203965,45.4090909 C0.0594418362,45.7181818 0,45.9939394 0,46.2357576 L0,50.0909091 C0,50.3454545 0.0813119457,50.5606061 0.243935837,50.7357576 C0.406559729,50.9127273 0.605633803,51 0.841158059,51 L19.3466354,51 C19.5709442,51 19.7672144,50.9127273 19.935446,50.7357576 C20.1036776,50.5606061 20.1877934,50.3454545 20.1877934,50.0909091 L20.1877934,46.2357576 C20.1877934,45.9939394 20.1289124,45.7181818 20.0111502,45.4090909 C19.8933881,45.0993939 19.755999,44.86 19.5995436,44.6909091 L13.458529,39.1818182 L13.458529,38.2727273 L13.458529,38.2727273 Z" id="Fill-174" sketch:type="MSShapeGroup"></path>
            </g>
        </g>
    </g>
</svg>