<?xml version="1.0" encoding="UTF-8" standalone="no"?>
<svg width="138px" height="138px" viewBox="0 0 138 138" version="1.1" xmlns="http://www.w3.org/2000/svg" xmlns:xlink="http://www.w3.org/1999/xlink" xmlns:sketch="http://www.bohemiancoding.com/sketch/ns">
    <!-- Generator: Sketch 3.3.1 (12005) - http://www.bohemiancoding.com/sketch -->
    <title>Oval 5 + Fill 106 + Fill 107 + Fill 108</title>
    <desc>Created with Sketch.</desc>
    <defs></defs>
    <g id="Page-1" stroke="none" stroke-width="1" fill="none" fill-rule="evenodd" sketch:type="MSPage">
        <g id="Desktop" sketch:type="MSArtboardGroup" transform="translate(-247.000000, -980.000000)">
            <g id="Oval-5-+-Fill-106-+-Fill-107-+-Fill-108" sketch:type="MSLayerGroup" transform="translate(247.000000, 980.000000)">
                <path d="M69,138 C107.107648,138 138,107.107648 138,69 C138,30.8923523 107.107648,0 69,0 C30.8923523,0 0,30.8923523 0,69 C0,107.107648 30.8923523,138 69,138 Z" id="Oval-5" fill="#CB827F" sketch:type="MSShapeGroup"></path>
                <g id="Fill-106-+-Fill-107-+-Fill-108" transform="translate(9.000000, 33.000000)" sketch:type="MSShapeGroup">
                    <path d="M39.1505886,36.1571613 C36.1612215,35.2134194 33.1671835,34.8387097 30.2268608,34.8387097 C28.1631076,34.8387097 26.1266013,35.0268387 24.1329114,35.3295484 C25.1418228,36.9089032 26.3142152,38.5052903 27.6602089,40.1264516 L27.6570949,40.1303226 L27.7481772,40.2309677 C27.9568101,40.4818065 28.1615506,40.7310968 28.3787468,40.9834839 L28.4262342,40.9834839 L30.4977722,43.2812903 L30.4658544,43.2812903 C30.6098734,43.4330323 30.7624557,43.5855484 30.9088101,43.7380645 L30.9882152,43.8247742 L30.997557,43.8286452 C32.3404367,45.216 33.8094304,46.6234839 35.3928608,48.0495484 C36.2227215,48.2980645 37.063481,48.5612903 37.9190316,48.843871 C38.7263165,49.1202581 39.5413861,49.3896774 40.3564557,49.6660645 L42.7105823,50.5788387 C43.1278481,50.7476129 43.4407975,50.8467097 43.9429177,51.075871 L45.1176456,51.6178065 C45.8992405,51.9754839 46.6792785,52.3339355 47.4219494,52.724129 C48.9158544,53.499871 50.3817342,54.2740645 51.7471899,55.0892903 C53.116538,55.9037419 54.4383987,56.6926452 55.6458228,57.5156129 C55.9011646,57.6944516 56.1432722,57.8539355 56.3955,58.0250323 C57.4783671,52.9850323 53.1663608,40.5793548 39.1505886,36.1571613" id="Fill-106" fill="#E37231"></path>
                    <path d="M59.1380886,58.7899355 L58.8562785,60.099871 L59.1412025,60.5992258 C59.7655443,60.9778065 60.3883291,61.3858065 61.0103354,61.8123871 C61.9258291,61.1473548 62.8413228,60.5148387 63.7607089,59.9543226 L64.1421646,59.396129 L63.8611329,58.0854194 C62.482443,51.6712258 67.7013797,37.7907097 83.0070949,32.9620645 C86.0564051,31.9989677 89.3470443,31.5112258 92.784038,31.5112258 C95.5149494,31.5112258 98.1641203,31.8116129 100.722209,32.2691613 C102.610025,28.5073548 103.537196,24.8338065 103.537196,21.1796129 C103.537196,5.54554839 93.3935886,0 84.7150823,0 C76.6196582,0 68.9726392,4.40516129 64.2542658,11.780129 L64.1803101,11.8474839 L64.1312658,11.9109677 C63.5590823,12.6797419 62.6116709,13.1659355 61.6012025,13.2100645 L61.5,13.2131613 L61.4019114,13.2100645 C60.3821013,13.1659355 59.4619367,12.7014194 58.874962,11.9349677 L58.794,11.859871 L58.7418418,11.780129 C54.0242468,4.40516129 46.3756709,0 38.2841392,0 C29.6017405,0 19.4620253,5.54554839 19.4620253,21.1796129 C19.4620253,25.0405161 20.4927342,28.9246452 22.6016392,32.9109677 C25.0585253,32.4867097 27.6002658,32.2149677 30.2144051,32.2149677 C33.6529557,32.2149677 36.9412595,32.7034839 39.9905696,33.6658065 C55.2978418,38.4944516 60.516,52.3757419 59.1380886,58.7899355" id="Fill-107" fill="#671A1D"></path>
                    <path d="M83.495981,36.1580298 C69.4809873,40.5802234 65.168981,52.9859008 66.2518481,58.0259008 C66.5040759,57.854804 66.7477405,57.6953202 67.0023038,57.5164815 C68.2081709,56.6935137 69.5308101,55.9038363 70.9009367,55.0901589 C72.2648354,54.2741589 73.7314937,53.5007395 75.2261772,52.7249976 C75.9696266,52.334804 76.7481076,51.9771266 77.5297025,51.618675 L78.7052089,51.0759653 C79.2057722,50.8483524 79.5195,50.7484815 79.9383228,50.5797073 L82.2908924,49.6677073 C83.105962,49.390546 83.9210316,49.1211266 84.7283165,48.8447395 C86.3576772,48.306675 87.9364367,47.8282234 89.4762722,47.4264169 C92.5520506,46.5670621 95.446443,45.9074492 97.9406962,45.3964815 C102.94088,44.3799653 106.360747,44.0609976 106.360747,44.0609976 C106.360747,44.0609976 105.596278,44.4364815 104.251842,45.0891266 C102.90507,45.7309331 100.966652,46.5902879 98.6428861,47.610675 C97.4813924,48.1038363 96.2148038,48.6357073 94.8820443,49.2008686 C93.5453924,49.7513202 92.1410127,50.326546 90.6790253,50.9211266 C89.2372785,51.5126105 87.7550506,52.1288686 86.242462,52.7520944 C84.7578987,53.3327395 83.2235127,54.0117073 81.6727785,54.694546 C80.2248038,55.3169976 78.7347911,56.1182879 77.2689114,56.7887395 C75.808481,57.5350621 74.3441582,58.2008686 72.937443,58.894546 C71.2325696,59.7097718 69.5962025,60.4537718 68.0306772,61.1327395 L68.0532532,61.1544169 C65.5060633,62.3482234 63.2383481,63.8253847 61.1364494,65.4651266 L61.1364494,65.3195782 C59.0329937,63.6798363 56.766057,62.9064169 54.2180886,61.7126105 L54.2406646,61.6909331 C52.6766962,61.0119653 51.0387722,60.2679653 49.3338987,59.4527395 C48.3444494,58.9642234 47.3230823,58.4811266 46.2978228,57.9817718 C45.8657658,57.7719653 45.4352658,57.5675782 45.0024304,57.3469331 C43.5381076,56.6764815 42.0480949,55.8751911 40.5993418,55.2535137 C39.0493861,54.5699008 37.513443,53.8909331 36.0281013,53.3095137 C34.5162911,52.6862879 33.0348418,52.070804 31.5930949,51.4793202 C30.1318861,50.8847395 28.7259494,50.3095137 27.3892975,49.7582879 C26.0573165,49.1939008 24.7907278,48.6620298 23.6292342,48.1688686 C21.3054684,47.1484815 19.3654937,46.2891266 18.0195,45.6473202 C16.6766203,44.994675 15.9113734,44.6191911 15.9113734,44.6191911 C15.9113734,44.6191911 19.3312405,44.9381589 24.3306456,45.954675 C26.8256772,46.4664169 29.7200696,47.1244815 32.7966266,47.9846105 C34.3356835,48.3864169 35.9136646,48.8648686 37.5430253,49.4029331 C38.3503101,49.6793202 39.1653797,49.9487395 39.9804494,50.2251266 L42.3345759,51.1379008 C42.7518418,51.306675 43.0647911,51.4057718 43.5669114,51.6349331 L44.7416392,52.1768686 C45.5232342,52.534546 46.3032722,52.8929976 47.045943,53.2831911 C48.5398481,54.0589331 50.0057278,54.8331266 51.3711835,55.6483524 C52.7405316,56.462804 54.0623924,57.2517073 55.2698165,58.074675 C55.5251582,58.2535137 55.7672658,58.4129976 56.0194937,58.5840944 C57.1023608,53.5440944 52.7903544,41.1384169 38.7745823,36.7162234 C23.5218038,31.9015137 8.2121962,41.8793202 0,41.006804 C10.9337658,49.2875782 12.1435253,56.9652557 28.2666456,64.5887395 C39.0470506,69.6929976 46.6504747,67.5624169 51.1656646,64.4207395 C54.8696772,66.090675 58.3292468,68.9567395 61.1364494,71.6617718 C63.9428734,68.9567395 67.4016646,65.5324815 71.1064557,63.862546 C75.6224241,67.0042234 83.2250696,69.1355782 94.0039177,64.0297718 C110.128595,56.4078363 111.338354,48.7293847 122.27212,40.4486105 C114.059146,41.3211266 98.7487595,31.3433202 83.495981,36.1580298" id="Fill-108" fill="#84BE42"></path>
                </g>
            </g>
        </g>
    </g>
</svg>