<?xml version="1.0" encoding="UTF-8" standalone="no"?>
<svg width="138px" height="138px" viewBox="0 0 138 138" version="1.1" xmlns="http://www.w3.org/2000/svg" xmlns:xlink="http://www.w3.org/1999/xlink" xmlns:sketch="http://www.bohemiancoding.com/sketch/ns">
    <!-- Generator: Sketch 3.3.1 (12005) - http://www.bohemiancoding.com/sketch -->
    <title>Oval 4 + Group</title>
    <desc>Created with Sketch.</desc>
    <defs></defs>
    <g id="Page-1" stroke="none" stroke-width="1" fill="none" fill-rule="evenodd" sketch:type="MSPage">
        <g id="Desktop" sketch:type="MSArtboardGroup" transform="translate(-67.000000, -980.000000)">
            <g id="Oval-4-+-Group" sketch:type="MSLayerGroup" transform="translate(67.000000, 980.000000)">
                <circle id="Oval-4" fill="#CB827F" sketch:type="MSShapeGroup" cx="69" cy="69" r="69"></circle>
                <g id="Group" transform="translate(33.000000, 22.000000)" sketch:type="MSShapeGroup">
                    <path d="M7.22951918,8.29360765 C7.8549072,9.35934275 9.17580094,9.93962046 10.2801547,9.5830506 L14.6346701,8.16755906 C15.7869721,7.79338781 16.277796,6.53233418 15.7235568,5.35644852 L13.8901851,1.44951019 C13.3369771,0.270785592 12.0727962,-0.0948688596 11.0684633,0.628491034 L7.21198976,3.40212767 C6.4417262,3.95742279 6.08443527,4.97830276 6.21229696,5.94921754 L7.22642576,8.29758215 L7.22951918,8.29360765" id="Fill-23" fill="#FFFAF5"></path>
                    <path d="M38.6006845,6.02430003 C38.7594804,5.03180937 38.4006428,3.9689132 37.6071785,3.400559 L33.7563763,0.629193506 C32.7504966,-0.0947341737 31.4852846,0.269784705 30.9346544,1.44907709 L29.1002516,5.35544763 C28.5470436,6.53360444 29.0337429,7.79295471 30.1891383,8.16712596 L34.5426225,9.58148192 C35.6474919,9.93975515 36.9694168,9.35890965 37.5948048,8.29431012 L37.6236768,8.32951288 L38.612027,6.03622354 L38.6006845,6.02430003" id="Fill-24" fill="#FFFAF5"></path>
                    <path d="M38.625057,5.93518895 L37.6367068,8.22847828 C39.3690265,10.2543402 41.8324263,14.7267938 40.9827647,23.2146329 L43.1223857,23.5888042 C44.1813692,13.2715572 40.7208545,8.06438801 38.625057,5.93518895" id="Fill-25" fill="#515251"></path>
                    <path d="M3.88765742,23.3247835 C3.02613774,14.7795979 5.52047181,10.2980598 7.25794718,8.28355357 L6.24381838,5.93518895 L6.25206752,6.0124079 C4.16039465,8.13479353 0.688537343,13.3357171 1.74081842,23.6546674 L3.98922497,23.3543084 L3.88765742,23.3247835" id="Fill-26" fill="#515251"></path>
                    <path d="M56.0575547,29.5153588 C56.0575547,26.7542135 58.0894213,24.5182705 60.5961291,24.5182705 C63.1007746,24.5182705 65.1347035,26.7542135 65.1347035,29.5153588 C65.1347035,32.2765041 63.1007746,34.5135826 60.5961291,34.5135826 C58.0894213,34.5135826 56.0575547,32.2765041 56.0575547,29.5153588 L56.0575547,29.5153588 Z M72.2129822,29.5153588 C72.2129822,22.4492569 67.0113831,16.7231308 60.5961291,16.7231308 C54.1808751,16.7231308 48.979276,22.451528 48.979276,29.5153588 C48.979276,30.5106884 49.0942484,31.4742219 49.2881032,32.4031205 L49.2814008,32.4099339 C50.5832184,37.6528737 54.6794326,41.6324887 59.6980038,42.261596 C59.9954885,42.2860109 60.2924576,42.3104257 60.5961291,42.3104257 C67.0113831,42.3104257 72.2129822,36.5825963 72.2129822,29.5153588 L72.2129822,29.5153588 Z" id="Fill-27" fill="#8A8D8C"></path>
                    <path d="M11.1711325,49.8665273 C11.3263195,51.7708829 12.3002338,53.5633846 13.928408,54.5683666 C15.0415265,55.2553882 16.1840326,55.7839973 17.3466459,56.183719 C19.1403185,56.6419226 21.037621,56.8923164 23.0034945,56.8923164 C23.6515676,56.8923164 24.2913917,56.8639271 24.9229665,56.8128263 C26.798615,56.4823746 28.6299244,55.8112511 30.3942094,54.7750409 C32.0079477,53.825702 32.9988758,52.1070125 33.217478,50.2509187 C40.8912416,42.6102169 44.4357945,28.8419641 44.638414,28.036843 C45.0519022,26.3840167 44.3460851,24.6857675 43.0257069,23.9124424 L40.8866015,23.5365678 C39.701303,23.8068342 38.6851119,24.7561731 38.3417414,26.1216994 C37.2971939,30.2563201 34.2754304,38.7992345 29.7889287,43.9206679 C28.3607961,43.3137043 26.7197326,43.3432292 25.2632436,44.1966121 C24.3145924,44.7541784 23.386564,45.0363683 22.4353349,45.0585119 L22.2383866,45.0585119 C21.2356004,45.0346649 20.2565305,44.7229502 19.2532287,44.1057663 C17.8328297,43.2268329 16.2149668,43.1501818 14.7888965,43.7043413 C10.4029313,38.561332 7.444583,30.1995414 6.41704935,26.1216994 C6.08244356,24.8004604 5.11162275,23.8715618 3.97581912,23.5905075 L1.72741257,23.8908666 C0.410643402,24.6891743 -0.294658172,26.3868556 0.117283318,28.0402497 C0.317324992,28.828905 3.75515459,42.1593945 11.1711325,49.8665273 L50.6641379,50.7164725" id="Fill-28" fill="#9D1535"></path>
                    <path d="M53.2171082,38.8361406 C51.6234773,37.1492472 50.4227117,35.0166414 49.7849499,32.6211505 C45.079846,36.7131872 40.023638,45.3395662 43.7904021,58.5616085 C46.2538019,67.2072922 45.4995211,76.0074139 41.8162795,81.5314079 C40.254614,83.875798 37.4437191,86.6704428 32.93247,86.6704428 C27.0951714,86.6704428 21.3109767,83.2801901 18.8681998,78.4256162 C17.9674967,76.6342501 17.2209494,73.9236377 18.7748814,71.1835005 C22.0415413,65.4255784 23.7712831,60.0310397 24.6503322,56.507925 C24.117747,56.5436955 23.5810373,56.5669748 23.0376251,56.5669748 C21.2898383,56.5669748 19.5941242,56.372224 17.9741991,56.0139508 C17.1430981,58.9636012 15.7005296,63.0244097 13.2330052,67.3713825 C10.7407334,71.7637782 10.7108303,77.0617932 13.1546383,81.9135282 C16.7538418,89.0613914 24.7008582,93.866 32.9340167,93.866 C38.5862251,93.866 43.6135611,90.997543 47.0838717,85.7920772 C52.0488236,78.3449905 53.1490528,67.3577556 50.0257217,56.4079946 C47.259166,46.6999825 50.6743105,41.325884 53.2171082,38.8361406" id="Fill-29" fill="#3A3A39"></path>
                </g>
            </g>
        </g>
    </g>
</svg>