<?xml version="1.0" encoding="UTF-8" standalone="no"?>
<svg width="138px" height="138px" viewBox="0 0 138 138" version="1.1" xmlns="http://www.w3.org/2000/svg" xmlns:xlink="http://www.w3.org/1999/xlink" xmlns:sketch="http://www.bohemiancoding.com/sketch/ns">
    <!-- Generator: Sketch 3.3.1 (12005) - http://www.bohemiancoding.com/sketch -->
    <title>Oval 6 + Fill 82</title>
    <desc>Created with Sketch.</desc>
    <defs></defs>
    <g id="Page-1" stroke="none" stroke-width="1" fill="none" fill-rule="evenodd" sketch:type="MSPage">
        <g id="Desktop" sketch:type="MSArtboardGroup" transform="translate(-422.000000, -981.000000)">
            <g id="Oval-6-+-Fill-82" sketch:type="MSLayerGroup" transform="translate(422.000000, 981.000000)">
                <circle id="Oval-6" fill="#CB827F" sketch:type="MSShapeGroup" cx="69" cy="69" r="69"></circle>
                <path d="M74.764,76.574 C71.202,79.358 69.055,82.164 68.038,83.692 C67.025,82.168 64.878,79.36 61.313,76.574 C55.856,72.311 53.314,68.635 53.314,65.014 C53.314,59.506 56.866,57.555 59.907,57.555 C62.742,57.555 65.42,59.106 67.072,61.703 L67.092,61.733 L67.119,61.758 C67.325,62.027 67.648,62.192 68.005,62.207 L68.039,62.209 L68.074,62.207 C68.428,62.192 68.761,62.02 68.961,61.75 L68.977,61.727 L69.005,61.703 C70.657,59.106 73.336,57.555 76.171,57.555 C79.21,57.555 82.764,59.506 82.764,65.014 C82.764,68.635 80.222,72.307 74.764,76.574 L74.764,76.574 Z M82.265,52.736 L82.265,20 L51.737,20 L51.737,52.736 L19,52.736 L19,83.266 L51.737,83.266 L51.737,116.002 L82.265,116.002 L82.265,83.266 L115.003,83.266 L115.003,52.736 L82.265,52.736 L82.265,52.736 Z" id="Fill-82" fill="#671A1D" sketch:type="MSShapeGroup"></path>
            </g>
        </g>
    </g>
</svg>